<svg version="1.2" width="128.58" height="34.04mm" viewBox="1000 1000 3402 3404" preserveAspectRatio="xMidYMid" fill-rule="evenodd" stroke-width="28.222" stroke-linejoin="round" xmlns="http://www.w3.org/2000/svg" xml:space="preserve"><g class="Page"><g class="com.sun.star.drawing.CustomShape"><path class="BoundingBox" fill="none" d="M1000 1000h2502v1002H1000z"/><path fill="#69D2E7" d="M1166 1000h1c-29 0-58 8-84 22-25 15-46 36-61 61-14 26-22 55-22 84v667c0 29 8 58 22 84 15 25 36 46 61 61 26 14 55 22 84 22h2167c29 0 58-8 84-22 25-15 46-36 61-61 14-26 22-55 22-84v-668 1c0-29-8-58-22-84-15-25-36-46-61-61-26-14-55-22-84-22H1166Z"/></g><g class="com.sun.star.drawing.CustomShape"><path class="BoundingBox" fill="none" d="M1001 2201h1002v1002H1001z"/><path fill="#E0E4CC" d="M1167 2201h1c-29 0-58 8-84 22-25 15-46 36-61 61-14 26-22 55-22 84v667c0 29 8 58 22 84 15 25 36 46 61 61 26 14 55 22 84 22h667c29 0 58-8 84-22 25-15 46-36 61-61 14-26 22-55 22-84v-668 1c0-29-8-58-22-84-15-25-36-46-61-61-26-14-55-22-84-22h-668Z"/></g><g class="com.sun.star.drawing.CustomShape"><path class="BoundingBox" fill="none" d="M2000 3402h2402v1002H2000z"/><path fill="#FA6900" d="M2166 3402h1c-29 0-58 8-84 22-25 15-46 36-61 61-14 26-22 55-22 84v667c0 29 8 58 22 84 15 25 36 46 61 61 26 14 55 22 84 22h2067c29 0 58-8 84-22 25-15 46-36 61-61 14-26 22-55 22-84v-668 1c0-29-8-58-22-84-15-25-36-46-61-61-26-14-55-22-84-22H2166Z"/></g></g></svg>